<svg xmlns="http://www.w3.org/2000/svg" width="1012.9654655456543px" height="1523.839054107666px" class="sequence hand"><desc></desc><defs><marker viewBox="0 0 5 5" markerWidth="5" markerHeight="5" orient="auto" refX="5" refY="2.5" id="markerArrowBlock"><path d="M 0 0 L 5 2.5 L 0 5 z"/></marker><marker viewBox="0 0 9.6 16" markerWidth="4" markerHeight="16" orient="auto" refX="9.6" refY="8" id="markerArrowOpen"><path d="M 9.6,8 1.92,16 0,13.7 5.76,8 0,2.286 1.92,0 9.6,8 z"/></marker></defs><g class="title"/><g class="actor"><path d="M157.2493438720703,20C196.6,24.0 233.8,16.0 257.9,20.0C259.6,45.4 256.2,29.4 257.9,62.5C241.8,66.5 233.8,58.5 157.2,62.5C158.9,26.8 155.5,55.7 157.2,20.0" stroke="#000000" fill="#ffffff" style="stroke-width: 2;"/><text x="167.2493438720703" y="43.75" style="font-size: 16px; font-family: danielbd;"><tspan x="167.2493438720703">MusicianA</tspan></text></g><g class="actor"><path d="M157.2493438720703,1461.339054107666C173.4,1465.4 188.3,1457.3 257.9,1461.3C259.6,1497.0 256.2,1489.5 257.9,1503.8C241.8,1499.8 233.8,1507.9 157.2,1503.8C158.9,1471.5 155.5,1468.1 157.2,1461.3" stroke="#000000" fill="#ffffff" style="stroke-width: 2;"/><text x="167.2493438720703" y="1485.089054107666" style="font-size: 16px; font-family: danielbd;"><tspan x="167.2493438720703">MusicianA</tspan></text></g><path d="M207.6,62.5C151.6,974.3 263.5,483.8 207.6,1461.3" stroke="#000000" fill="none" style="stroke-width: 2;"/><g class="actor"><path d="M495.83724784851074,20C514.4,16.9 508.2,23.1 573.1,20.0C571.4,33.3 574.8,51.5 573.1,62.5C525.8,59.4 540.4,65.6 495.8,62.5C497.5,30.2 494.1,52.3 495.8,20.0" stroke="#000000" fill="#ffffff" style="stroke-width: 2;"/><text x="505.86849784851074" y="43.75" style="font-size: 16px; font-family: danielbd;"><tspan x="505.83724784851074">Server</tspan></text></g><g class="actor"><path d="M495.83724784851074,1461.339054107666C559.1,1458.2 508.2,1464.4 573.1,1461.3C574.8,1471.7 571.4,1474.3 573.1,1503.8C540.6,1500.7 545.2,1506.9 495.8,1503.8C494.1,1471.5 497.5,1480.4 495.8,1461.3" stroke="#000000" fill="#ffffff" style="stroke-width: 2;"/><text x="505.86849784851074" y="1485.089054107666" style="font-size: 16px; font-family: danielbd;"><tspan x="505.83724784851074">Server</tspan></text></g><path d="M534.5,62.5C590.4,880.9 478.5,1237.5 534.5,1461.3" stroke="#000000" fill="none" style="stroke-width: 2;"/><g class="actor"><path d="M766.536434173584,20C840.8,15.8 799.3,24.2 870.4,20.0C872.1,43.3 868.7,55.7 870.4,62.5C791.5,58.3 783.1,66.7 766.5,62.5C768.2,39.7 764.8,38.5 766.5,20.0" stroke="#000000" fill="#ffffff" style="stroke-width: 2;"/><text x="776.536434173584" y="43.75" style="font-size: 16px; font-family: danielbd;"><tspan x="776.536434173584">MusicianB</tspan></text></g><g class="actor"><path d="M766.536434173584,1461.339054107666C815.8,1465.5 790.5,1457.2 870.4,1461.3C872.1,1486.5 868.7,1493.6 870.4,1503.8C791.5,1508.0 801.3,1499.7 766.5,1503.8C764.8,1472.9 768.2,1478.4 766.5,1461.3" stroke="#000000" fill="#ffffff" style="stroke-width: 2;"/><text x="776.536434173584" y="1485.089054107666" style="font-size: 16px; font-family: danielbd;"><tspan x="776.536434173584">MusicianB</tspan></text></g><path d="M818.4,62.5C762.5,1237.5 874.4,1073.8 818.4,1461.3" stroke="#000000" fill="none" style="stroke-width: 2;"/><g class="signal"><text x="327.5227813720703" y="90.00390720367432" style="font-size: 16px; font-family: danielbd;"><tspan x="327.5227813720703">visit home</tspan></text><path d="M207.6,105.0C259.9,91.9 482.2,118.1 534.5,105.0" stroke="#000000" fill="none" style="stroke-width: 2; marker-end: url(&quot;#markerArrowBlock&quot;);"/></g><g class="note"><path d="M431.54431915283203,125.0078125C556.7,116.8 537.3,133.2 637.4,125.0C634.6,177.4 640.2,168.3 637.4,195.9C586.3,204.1 580.9,187.7 431.5,195.9C434.4,147.9 428.7,136.4 431.5,125.0" stroke="#000000" fill="#ffffff" style="stroke-width: 2;"/><text x="436.54431915283203" y="143.7578125" style="font-size: 16px; font-family: danielbd;"><tspan x="436.54431915283203">Use WS connection for</tspan><tspan dy="1.2em" x="436.54431915283203">- WebRTC singaling</tspan><tspan dy="1.2em" x="436.54431915283203">- central clock?</tspan></text></g><g class="signal"><text x="239.0397186279297" y="223.41172122955322" style="font-size: 16px; font-family: danielbd;"><tspan x="239.0397186279297">Establish websocket connection</tspan></text><path d="M534.5,238.4C456.0,251.5 289.4,225.3 207.6,238.4" stroke="#000000" fill="none" style="stroke-width: 2; marker-end: url(&quot;#markerArrowBlock&quot;);"/></g><g class="signal"><text x="280.9375" y="265.9195337295532" style="font-size: 16px; font-family: danielbd;"><tspan x="280.9375">new jam session hash</tspan></text><path d="M534.5,280.9C427.8,267.8 310.1,294.0 207.6,280.9" stroke="#000000" fill="none" style="stroke-width: 2; marker-end: url(&quot;#markerArrowBlock&quot;);"/></g><g class="signal"><text x="445.34178161621094" y="308.4234390258789" style="font-size: 16px; font-family: danielbd;"><tspan x="445.34178161621094">send session link</tspan></text><path d="M207.6,323.4C354.2,347.9 671.8,299.0 818.4,323.4" stroke="#000000" fill="none" style="stroke-width: 2; stroke-dasharray: 6, 2; marker-end: url(&quot;#markerArrowBlock&quot;);"/></g><g class="note"><path d="M722.6171646118164,343.4234390258789C868.3,351.1 808.2,335.8 914.3,343.4C913.0,358.9 915.6,358.5 914.3,375.9C883.6,368.3 857.0,383.6 722.6,375.9C723.9,351.3 721.3,355.8 722.6,343.4" stroke="#000000" fill="#ffffff" style="stroke-width: 2;"/><text x="727.6171646118164" y="362.1734390258789" style="font-size: 16px; font-family: danielbd;"><tspan x="727.6171646118164">B visits session URL</tspan></text></g><g class="signal"><text x="544.4661407470703" y="403.4273462295532" style="font-size: 16px; font-family: danielbd;"><tspan x="544.4661407470703">Establish websocket connection</tspan></text><path d="M534.5,418.4C636.9,407.1 735.2,429.8 818.4,418.4" stroke="#000000" fill="none" style="stroke-width: 2; marker-end: url(&quot;#markerArrowBlock&quot;);"/></g><g class="note"><path d="M454.33267974853516,438.4312515258789C537.9,432.0 515.4,444.8 614.6,438.4C612.5,450.8 616.7,453.1 614.6,490.1C589.0,483.7 480.0,496.5 454.3,490.1C456.4,464.4 452.3,450.8 454.3,438.4" stroke="#000000" fill="#ffffff" style="stroke-width: 2;"/><text x="459.33267974853516" y="457.1812515258789" style="font-size: 16px; font-family: danielbd;"><tspan x="459.33267974853516">WebRTC signalling</tspan><tspan dy="1.2em" x="459.33267974853516">(simplified)</tspan></text></g><g class="signal"><text x="300.55992126464844" y="508.03125190734863" style="font-size: 16px; font-family: danielbd;"><tspan x="300.55992126464844">send SDP offer</tspan><tspan dy="1.2em" x="300.55992126464844">(websocket)</tspan></text><path d="M207.6,551.8C286.0,538.8 351.5,564.9 534.5,551.8" stroke="#000000" fill="none" style="stroke-width: 2; marker-end: url(&quot;#markerArrowBlock&quot;);"/></g><g class="signal"><text x="561.7740783691406" y="569.7312526702881" style="font-size: 16px; font-family: danielbd;"><tspan x="561.7740783691406">forward SDP offer to B</tspan><tspan dy="1.2em" x="561.7740783691406">(websocket)</tspan></text><path d="M534.5,613.5C624.6,624.9 632.7,602.2 818.4,613.5" stroke="#000000" fill="none" style="stroke-width: 2; marker-end: url(&quot;#markerArrowBlock&quot;);"/></g><g class="signal"><text x="565.9732971191406" y="631.4312534332275" style="font-size: 16px; font-family: danielbd;"><tspan x="565.9732971191406">send SDP offer response</tspan><tspan dy="1.2em" x="565.9732971191406">(websocket)</tspan></text><path d="M818.4,675.2C750.3,686.6 708.3,663.9 534.5,675.2" stroke="#000000" fill="none" style="stroke-width: 2; marker-end: url(&quot;#markerArrowBlock&quot;);"/></g><g class="signal"><text x="217.5911407470703" y="693.131254196167" style="font-size: 16px; font-family: danielbd;"><tspan x="217.5911407470703">forward SDP offer response to A</tspan><tspan dy="1.2em" x="217.5911407470703">(websocket)</tspan></text><path d="M534.5,736.9C454.1,723.9 259.9,750.0 207.6,736.9" stroke="#000000" fill="none" style="stroke-width: 2; marker-end: url(&quot;#markerArrowBlock&quot;);"/></g><g class="note"><path d="M454.33267974853516,756.9312553405762C561.9,750.5 570.7,763.3 614.6,756.9C616.7,770.4 612.5,797.0 614.6,808.6C576.1,815.0 531.0,802.2 454.3,808.6C456.4,779.1 452.3,784.7 454.3,756.9" stroke="#000000" fill="#ffffff" style="stroke-width: 2;"/><text x="459.33267974853516" y="775.6812553405762" style="font-size: 16px; font-family: danielbd;"><tspan x="459.33267974853516">WebRTC signalling</tspan><tspan dy="1.2em" x="459.33267974853516">complete</tspan></text></g><g class="note"><path d="M92.9037094116211,828.6312561035156C177.2,837.8 185.9,819.5 322.3,828.6C324.3,849.5 320.2,850.9 322.3,880.3C285.6,871.2 267.2,889.5 92.9,880.3C90.8,852.3 95.0,843.4 92.9,828.6" stroke="#000000" fill="#ffffff" style="stroke-width: 2;"/><text x="97.9037094116211" y="847.3812561035156" style="font-size: 16px; font-family: danielbd;"><tspan x="97.9037094116211">now A and B can connect</tspan><tspan dy="1.2em" x="97.9037094116211">directly over WebRTC</tspan></text></g><g class="signal"><text x="419.3880081176758" y="907.8351640701294" style="font-size: 16px; font-family: danielbd;"><tspan x="419.3880081176758">WebRTC data channel</tspan></text><path d="M207.6,922.8C654.8,898.4 430.3,947.3 818.4,922.8" stroke="#000000" fill="none" style="stroke-width: 2; marker-end: url(&quot;#markerArrowBlock&quot;);"/></g><g class="signal"><text x="438.8899612426758" y="950.3390693664551" style="font-size: 16px; font-family: danielbd;"><tspan x="438.8899612426758">between A and B</tspan></text><path d="M818.4,965.3C720.7,989.8 671.8,940.9 207.6,965.3" stroke="#000000" fill="none" style="stroke-width: 2; marker-end: url(&quot;#markerArrowBlock&quot;);"/></g><g class="note"><path d="M20,985.3390693664551C87.8,978.6 60.2,992.0 187.6,985.3C188.9,990.5 186.3,994.6 187.6,1017.8C46.8,1011.1 64.9,1024.5 20.0,1017.8C21.3,1012.6 18.7,1005.9 20.0,985.3" stroke="#000000" fill="#ffffff" style="stroke-width: 2;"/><text x="25" y="1004.0890693664551" style="font-size: 16px; font-family: danielbd;"><tspan x="25">Jam Session begins</tspan></text></g><g class="note"><path d="M736.9231567382812,1037.839069366455C796.4,1044.4 857.5,1031.3 900.0,1037.8C897.9,1050.2 902.0,1055.1 900.0,1089.5C763.0,1083.0 844.7,1096.1 736.9,1089.5C739.0,1046.1 734.9,1081.3 736.9,1037.8" stroke="#000000" fill="#ffffff" style="stroke-width: 2;"/><text x="742.2044067382812" y="1056.589069366455" style="font-size: 16px; font-family: danielbd;"><tspan x="741.9231567382812">B plays a note on</tspan><tspan dy="1.2em" x="741.9231567382812">their instrument</tspan></text></g><g class="signal"><text x="407.5872268676758" y="1107.4390678405762" style="font-size: 16px; font-family: danielbd;"><tspan x="407.5559768676758">Send MIDI 'NOTE_ON'</tspan><tspan dy="1.2em" x="407.5559768676758">(data channel)</tspan></text><path d="M818.4,1151.2C578.0,1175.7 319.2,1126.8 207.6,1151.2" stroke="#000000" fill="none" style="stroke-width: 2; marker-end: url(&quot;#markerArrowBlock&quot;);"/></g><g class="note"><path d="M106.54296875,1171.2390632629395C276.3,1163.2 165.4,1179.3 308.6,1171.2C307.3,1198.5 309.9,1176.4 308.6,1203.7C260.1,1211.8 155.0,1195.7 106.5,1203.7C107.8,1195.8 105.2,1183.0 106.5,1171.2" stroke="#000000" fill="#ffffff" style="stroke-width: 2;"/><text x="111.54296875" y="1189.9890632629395" style="font-size: 16px; font-family: danielbd;"><tspan x="111.54296875">MIDI note plays for A</tspan></text></g><g class="signal"><text x="403.47464752197266" y="1221.6390647888184" style="font-size: 16px; font-family: danielbd;"><tspan x="403.44339752197266">Send MIDI 'NOTE_OFF'</tspan><tspan dy="1.2em" x="403.44339752197266">(data channel)</tspan></text><path d="M818.4,1265.4C305.3,1241.0 720.7,1289.9 207.6,1265.4" stroke="#000000" fill="none" style="stroke-width: 2; marker-end: url(&quot;#markerArrowBlock&quot;);"/></g><g class="signal"><text x="407.5872268676758" y="1283.3390617370605" style="font-size: 16px; font-family: danielbd;"><tspan x="407.5559768676758">Send MIDI 'NOTE_ON'</tspan><tspan dy="1.2em" x="407.5559768676758">(data channel)</tspan></text><path d="M207.6,1327.1C431.2,1351.6 635.9,1302.7 818.4,1327.1" stroke="#000000" fill="none" style="stroke-width: 2; marker-end: url(&quot;#markerArrowBlock&quot;);"/></g><g class="note"><path d="M715.8300552368164,1347.1390571594238C793.1,1338.9 839.9,1355.3 921.1,1347.1C919.8,1371.8 922.4,1369.9 921.1,1379.6C765.1,1387.8 789.4,1371.4 715.8,1379.6C714.5,1358.2 717.1,1357.5 715.8,1347.1" stroke="#000000" fill="#ffffff" style="stroke-width: 2;"/><text x="720.8300552368164" y="1365.8890571594238" style="font-size: 16px; font-family: danielbd;"><tspan x="720.8300552368164">MIDI note plays for B</tspan></text></g><g class="signal"><text x="403.47464752197266" y="1397.5390586853027" style="font-size: 16px; font-family: danielbd;"><tspan x="403.44339752197266">Send MIDI 'NOTE_OFF'</tspan><tspan dy="1.2em" x="403.44339752197266">(data channel)</tspan></text><path d="M207.6,1441.3C693.8,1465.8 401.8,1416.9 818.4,1441.3" stroke="#000000" fill="none" style="stroke-width: 2; marker-end: url(&quot;#markerArrowBlock&quot;);"/></g></svg>